<?xml version="1.0" encoding="utf-8" standalone="no"?>
<!DOCTYPE svg PUBLIC "-//W3C//DTD SVG 1.1//EN"
  "http://www.w3.org/Graphics/SVG/1.1/DTD/svg11.dtd">
<svg xmlns:xlink="http://www.w3.org/1999/xlink" width="516.3875pt" height="262.686281pt" viewBox="0 0 516.3875 262.686281" xmlns="http://www.w3.org/2000/svg" version="1.1">
 <metadata>
  <rdf:RDF xmlns:dc="http://purl.org/dc/elements/1.1/" xmlns:cc="http://creativecommons.org/ns#" xmlns:rdf="http://www.w3.org/1999/02/22-rdf-syntax-ns#">
   <cc:Work>
    <dc:type rdf:resource="http://purl.org/dc/dcmitype/StillImage"/>
    <dc:date>2026-09-09T12:36:42.623065</dc:date>
    <dc:format>image/svg+xml</dc:format>
    <dc:creator>
     <cc:Agent>
      <dc:title>Matplotlib v3.11.0, https://matplotlib.org/</dc:title>
     </cc:Agent>
    </dc:creator>
   </cc:Work>
  </rdf:RDF>
 </metadata>
 <defs>
  <style type="text/css">*{stroke-linejoin: round; stroke-linecap: butt}</style>
 </defs>
 <g id="figure_1">
  <g id="patch_1">
   <path d="M 0 262.686281 
L 516.3875 262.686281 
L 516.3875 0 
L 0 0 
z
" style="fill: #ffffff"/>
  </g>
  <g id="axes_1">
   <g id="patch_2">
    <path d="M 114.9875 189.390281 
L 285.725546 189.390281 
L 285.725546 21.558281 
L 114.9875 21.558281 
z
" style="fill: #ffffff"/>
   </g>
   <g id="line2d_1">
    <path d="M 178.979993 67.330645 
L 243.746771 67.330645 
" clip-path="url(#pff9400927b)" style="fill: none; stroke: #929292; stroke-linecap: square"/>
   </g>
   <g id="line2d_2">
    <path d="M 149.637047 143.617918 
L 155.075389 143.617918 
" clip-path="url(#pff9400927b)" style="fill: none; stroke: #929292; stroke-linecap: square"/>
   </g>
   <g id="matplotlib.axis_1">
    <g id="xtick_1">
     <g id="line2d_3">
      <defs>
       <path id="m7679277437" d="M 0 0 
L 0 3.5 
" style="stroke: #000000; stroke-width: 0.7"/>
      </defs>
      <g>
       <use xlink:href="#m7679277437" x="114.9875" y="189.390281" style="stroke: #000000; stroke-width: 0.7"/>
      </g>
     </g>
     <g id="text_1">
      <text style="font-size: 11px; font-family: 'DejaVu Sans'; text-anchor: middle" x="114.9875" y="204.747703" transform="rotate(-0 114.9875 204.747703)">0.58</text>
     </g>
    </g>
    <g id="xtick_2">
     <g id="line2d_4">
      <g>
       <use xlink:href="#m7679277437" x="163.769799" y="189.390281" style="stroke: #000000; stroke-width: 0.7"/>
      </g>
     </g>
     <g id="text_2">
      <text style="font-size: 11px; font-family: 'DejaVu Sans'; text-anchor: middle" x="163.769799" y="204.747703" transform="rotate(-0 163.769799 204.747703)">0.60</text>
     </g>
    </g>
    <g id="xtick_3">
     <g id="line2d_5">
      <g>
       <use xlink:href="#m7679277437" x="212.552098" y="189.390281" style="stroke: #000000; stroke-width: 0.7"/>
      </g>
     </g>
     <g id="text_3">
      <text style="font-size: 11px; font-family: 'DejaVu Sans'; text-anchor: middle" x="212.552098" y="204.747703" transform="rotate(-0 212.552098 204.747703)">0.62</text>
     </g>
    </g>
    <g id="xtick_4">
     <g id="line2d_6">
      <g>
       <use xlink:href="#m7679277437" x="261.334396" y="189.390281" style="stroke: #000000; stroke-width: 0.7"/>
      </g>
     </g>
     <g id="text_4">
      <text style="font-size: 11px; font-family: 'DejaVu Sans'; text-anchor: middle" x="261.334396" y="204.747703" transform="rotate(-0 261.334396 204.747703)">0.64</text>
     </g>
    </g>
    <g id="text_5">
     <text style="font-size: 11px; font-family: 'DejaVu Sans'; text-anchor: middle; fill: #333333" x="200.356523" y="219.747703" transform="rotate(-0 200.356523 219.747703)">Raw MAE</text>
    </g>
   </g>
   <g id="matplotlib.axis_2">
    <g id="ytick_1">
     <g id="line2d_7">
      <defs>
       <path id="m9710d0d516" d="M 0 0 
L -3.5 0 
" style="stroke: #000000; stroke-width: 0.7"/>
      </defs>
      <g>
       <use xlink:href="#m9710d0d516" x="114.9875" y="67.330645" style="stroke: #000000; stroke-width: 0.7"/>
      </g>
     </g>
     <g id="text_6">
      <text style="font-size: 11px; font-family: 'DejaVu Sans'" transform="translate(33.933437 65.459248)">Development</text>
      <text style="font-size: 11px; font-family: 'DejaVu Sans'" transform="translate(52.057656 78.661397)">N = 3,344</text>
     </g>
    </g>
    <g id="ytick_2">
     <g id="line2d_8">
      <g>
       <use xlink:href="#m9710d0d516" x="114.9875" y="143.617918" style="stroke: #000000; stroke-width: 0.7"/>
      </g>
     </g>
     <g id="text_7">
      <text style="font-size: 11px; font-family: 'DejaVu Sans'" transform="translate(7.2 141.746521)">Opened validation</text>
      <text style="font-size: 11px; font-family: 'DejaVu Sans'" transform="translate(62.552344 154.94867)">N = 790</text>
     </g>
    </g>
   </g>
   <g id="patch_3">
    <path d="M 114.9875 189.390281 
L 114.9875 21.558281 
" style="fill: none; stroke: #777777; stroke-width: 0.7; stroke-linejoin: miter; stroke-linecap: square"/>
   </g>
   <g id="patch_4">
    <path d="M 114.9875 189.390281 
L 285.725546 189.390281 
" style="fill: none; stroke: #777777; stroke-width: 0.7; stroke-linejoin: miter; stroke-linecap: square"/>
   </g>
   <g id="PathCollection_1">
    <defs>
     <path id="m2766660242" d="M 0 3.807887 
C 1.009863 3.807887 1.978501 3.406664 2.692582 2.692582 
C 3.406664 1.978501 3.807887 1.009863 3.807887 0 
C 3.807887 -1.009863 3.406664 -1.978501 2.692582 -2.692582 
C 1.978501 -3.406664 1.009863 -3.807887 0 -3.807887 
C -1.009863 -3.807887 -1.978501 -3.406664 -2.692582 -2.692582 
C -3.406664 -1.978501 -3.807887 -1.009863 -3.807887 0 
C -3.807887 1.009863 -3.406664 1.978501 -2.692582 2.692582 
C -1.978501 3.406664 -1.009863 3.807887 0 3.807887 
z
" style="stroke: #929292"/>
    </defs>
    <g clip-path="url(#pff9400927b)">
     <use xlink:href="#m2766660242" x="243.746771" y="67.330645" style="fill: #929292; stroke: #929292"/>
     <use xlink:href="#m2766660242" x="154.751537" y="143.617918" style="fill: #929292; stroke: #929292"/>
    </g>
   </g>
   <g id="PathCollection_2">
    <defs>
     <path id="mee95c3a1c1" d="M 0 3.807887 
C 1.009863 3.807887 1.978501 3.406664 2.692582 2.692582 
C 3.406664 1.978501 3.807887 1.009863 3.807887 0 
C 3.807887 -1.009863 3.406664 -1.978501 2.692582 -2.692582 
C 1.978501 -3.406664 1.009863 -3.807887 0 -3.807887 
C -1.009863 -3.807887 -1.978501 -3.406664 -2.692582 -2.692582 
C -3.406664 -1.978501 -3.807887 -1.009863 -3.807887 0 
C -3.807887 1.009863 -3.406664 1.978501 -2.692582 2.692582 
C -1.978501 3.406664 -1.009863 3.807887 0 3.807887 
z
" style="stroke: #356c78"/>
    </defs>
    <g clip-path="url(#pff9400927b)">
     <use xlink:href="#mee95c3a1c1" x="178.979993" y="67.330645" style="fill: #356c78; stroke: #356c78"/>
     <use xlink:href="#mee95c3a1c1" x="149.637047" y="143.617918" style="fill: #356c78; stroke: #356c78"/>
    </g>
   </g>
   <g id="PathCollection_3">
    <defs>
     <path id="m7515234ae0" d="M 0 3.807887 
L 0 -3.807887 
" style="stroke: #ad501b; stroke-width: 1.5"/>
    </defs>
    <g clip-path="url(#pff9400927b)">
     <use xlink:href="#m7515234ae0" x="239.602599" y="67.330645" style="fill: #ad501b; stroke: #ad501b; stroke-width: 1.5"/>
     <use xlink:href="#m7515234ae0" x="155.075389" y="143.617918" style="fill: #ad501b; stroke: #ad501b; stroke-width: 1.5"/>
    </g>
   </g>
  </g>
  <g id="axes_2">
   <g id="patch_5">
    <path d="M 324.790411 189.390281 
L 509.1875 189.390281 
L 509.1875 21.558281 
L 324.790411 21.558281 
z
" style="fill: #ffffff"/>
   </g>
   <g id="matplotlib.axis_3">
    <g id="xtick_5">
     <g id="line2d_9">
      <g>
       <use xlink:href="#m7679277437" x="349.376689" y="189.390281" style="stroke: #000000; stroke-width: 0.7"/>
      </g>
     </g>
     <g id="text_8">
      <text style="font-size: 11px; font-family: 'DejaVu Sans'; text-anchor: middle" x="349.376689" y="204.747703" transform="rotate(-0 349.376689 204.747703)">−0.04</text>
     </g>
    </g>
    <g id="xtick_6">
     <g id="line2d_10">
      <g>
       <use xlink:href="#m7679277437" x="398.549246" y="189.390281" style="stroke: #000000; stroke-width: 0.7"/>
      </g>
     </g>
     <g id="text_9">
      <text style="font-size: 11px; font-family: 'DejaVu Sans'; text-anchor: middle" x="398.549246" y="204.747703" transform="rotate(-0 398.549246 204.747703)">−0.02</text>
     </g>
    </g>
    <g id="xtick_7">
     <g id="line2d_11">
      <g>
       <use xlink:href="#m7679277437" x="447.721804" y="189.390281" style="stroke: #000000; stroke-width: 0.7"/>
      </g>
     </g>
     <g id="text_10">
      <text style="font-size: 11px; font-family: 'DejaVu Sans'; text-anchor: middle" x="447.721804" y="204.747703" transform="rotate(-0 447.721804 204.747703)">0.00</text>
     </g>
    </g>
    <g id="xtick_8">
     <g id="line2d_12">
      <g>
       <use xlink:href="#m7679277437" x="496.894361" y="189.390281" style="stroke: #000000; stroke-width: 0.7"/>
      </g>
     </g>
     <g id="text_11">
      <text style="font-size: 11px; font-family: 'DejaVu Sans'; text-anchor: middle" x="496.894361" y="204.747703" transform="rotate(-0 496.894361 204.747703)">0.02</text>
     </g>
    </g>
    <g id="text_12">
     <text style="font-size: 11px; font-family: 'DejaVu Sans'; text-anchor: middle; fill: #333333" x="416.988955" y="219.748563" transform="rotate(-0 416.988955 219.748563)">Δ raw MAE vs all pairs</text>
    </g>
   </g>
   <g id="matplotlib.axis_4">
    <g id="ytick_3">
     <g id="line2d_13">
      <g>
       <use xlink:href="#m9710d0d516" x="324.790411" y="67.330645" style="stroke: #000000; stroke-width: 0.7"/>
      </g>
     </g>
    </g>
    <g id="ytick_4">
     <g id="line2d_14">
      <g>
       <use xlink:href="#m9710d0d516" x="324.790411" y="143.617918" style="stroke: #000000; stroke-width: 0.7"/>
      </g>
     </g>
    </g>
   </g>
   <g id="LineCollection_1">
    <path d="M 344.683117 67.330645 
L 419.776117 67.330645 
" clip-path="url(#p7a7c2c8ae5)" style="fill: none; stroke: #356c78; stroke-width: 1.5"/>
   </g>
   <g id="line2d_15">
    <defs>
     <path id="m0865628fb4" d="M 0 3 
L 0 -3 
" style="stroke: #356c78"/>
    </defs>
    <g clip-path="url(#p7a7c2c8ae5)">
     <use xlink:href="#m0865628fb4" x="344.683117" y="67.330645" style="fill: #356c78; stroke: #356c78"/>
    </g>
   </g>
   <g id="line2d_16">
    <g clip-path="url(#p7a7c2c8ae5)">
     <use xlink:href="#m0865628fb4" x="419.776117" y="67.330645" style="fill: #356c78; stroke: #356c78"/>
    </g>
   </g>
   <g id="LineCollection_2">
    <path d="M 390.047788 143.617918 
L 495.695365 143.617918 
" clip-path="url(#p7a7c2c8ae5)" style="fill: none; stroke: #356c78; stroke-width: 1.5"/>
   </g>
   <g id="line2d_17">
    <g clip-path="url(#p7a7c2c8ae5)">
     <use xlink:href="#m0865628fb4" x="390.047788" y="143.617918" style="fill: #356c78; stroke: #356c78"/>
    </g>
   </g>
   <g id="line2d_18">
    <g clip-path="url(#p7a7c2c8ae5)">
     <use xlink:href="#m0865628fb4" x="495.695365" y="143.617918" style="fill: #356c78; stroke: #356c78"/>
    </g>
   </g>
   <g id="line2d_19">
    <path d="M 447.721804 189.390281 
L 447.721804 21.558281 
" clip-path="url(#p7a7c2c8ae5)" style="fill: none; stroke: #929292; stroke-width: 0.8; stroke-linecap: square"/>
   </g>
   <g id="line2d_20">
    <defs>
     <path id="m9b6cab3301" d="M 0 2.5 
C 0.663008 2.5 1.29895 2.236584 1.767767 1.767767 
C 2.236584 1.29895 2.5 0.663008 2.5 0 
C 2.5 -0.663008 2.236584 -1.29895 1.767767 -1.767767 
C 1.29895 -2.236584 0.663008 -2.5 0 -2.5 
C -0.663008 -2.5 -1.29895 -2.236584 -1.767767 -1.767767 
C -2.236584 -1.29895 -2.5 -0.663008 -2.5 0 
C -2.5 0.663008 -2.236584 1.29895 -1.767767 1.767767 
C -1.29895 2.236584 -0.663008 2.5 0 2.5 
z
" style="stroke: #356c78"/>
    </defs>
    <g clip-path="url(#p7a7c2c8ae5)">
     <use xlink:href="#m9b6cab3301" x="382.436891" y="67.330645" style="fill: #356c78; stroke: #356c78"/>
    </g>
   </g>
   <g id="line2d_21">
    <g clip-path="url(#p7a7c2c8ae5)">
     <use xlink:href="#m9b6cab3301" x="442.566397" y="143.617918" style="fill: #356c78; stroke: #356c78"/>
    </g>
   </g>
   <g id="patch_6">
    <path d="M 324.790411 189.390281 
L 324.790411 21.558281 
" style="fill: none; stroke: #777777; stroke-width: 0.7; stroke-linejoin: miter; stroke-linecap: square"/>
   </g>
   <g id="patch_7">
    <path d="M 324.790411 189.390281 
L 509.1875 189.390281 
" style="fill: none; stroke: #777777; stroke-width: 0.7; stroke-linejoin: miter; stroke-linecap: square"/>
   </g>
   <g id="text_13">
    <text style="font-size: 11px; font-family: 'DejaVu Sans'; text-anchor: middle; fill: #222222" x="416.988955" y="15.558281" transform="rotate(-0 416.988955 15.558281)">Ligand–ligand final pool</text>
   </g>
  </g>
  <g id="legend_1">
   <g id="PathCollection_4">
    <g>
     <use xlink:href="#m2766660242" x="122.843094" y="247.361672" style="fill: #929292; stroke: #929292"/>
    </g>
   </g>
   <g id="text_14">
    <text style="font-size: 9px; font-family: 'DejaVu Sans'; text-anchor: start; fill: #222222" x="139.943094" y="249.724172" transform="rotate(-0 139.943094 249.724172)">All pairs</text>
   </g>
   <g id="PathCollection_5">
    <g>
     <use xlink:href="#mee95c3a1c1" x="203.978094" y="247.361672" style="fill: #356c78; stroke: #356c78"/>
    </g>
   </g>
   <g id="text_15">
    <text style="font-size: 9px; font-family: 'DejaVu Sans'; text-anchor: start; fill: #222222" x="221.078094" y="249.724172" transform="rotate(-0 221.078094 249.724172)">Ligand–ligand</text>
   </g>
   <g id="PathCollection_6">
    <g>
     <use xlink:href="#m7515234ae0" x="311.286219" y="247.361672" style="fill: #ad501b; stroke: #ad501b; stroke-width: 1.5"/>
    </g>
   </g>
   <g id="text_16">
    <text style="font-size: 9px; font-family: 'DejaVu Sans'; text-anchor: start; fill: #222222" x="328.386219" y="249.724172" transform="rotate(-0 328.386219 249.724172)">Receptor–ligand</text>
   </g>
  </g>
 </g>
 <defs>
  <clipPath id="pff9400927b">
   <rect x="114.9875" y="21.558281" width="170.738046" height="167.832"/>
  </clipPath>
  <clipPath id="p7a7c2c8ae5">
   <rect x="324.790411" y="21.558281" width="184.397089" height="167.832"/>
  </clipPath>
 </defs>
</svg>
